# xmcd CD Database Entry
#
# Track frame offsets:
# 150
# 23770
# 40909
# 65262
# 90286
# 108333
# 131888
# 155428
# 176266
# 193688
# 214343
# 231124
#
# Disc length: 3526 seconds
#
# Revision: 1
# Processed by: cddbd v1.4PL0 Copyright (c) Steve Scherf et al.
# Submitted via: tcd 2.0b
#
DISCID=990dc40c
DTITLE=REVOLVER - 8:30 a.m.
DYEAR=1900
DGENRE=
TTITLE0=Lo que Ana vé
TTITLE1=Asustando al huracán
TTITLE2=Vidas
TTITLE3=Gargantas y desfiladeros
TTITLE4=Eso de saber
TTITLE5=Ay Amor
TTITLE6=Deprimencia
TTITLE7=La flor más bella
TTITLE8=Petroleros
TTITLE9=En un mundo de dos
TTITLE10=Odio
TTITLE11=Dónde está el final
EXTD=
EXTT0=
EXTT1=
EXTT2=
EXTT3=
EXTT4=
EXTT5=
EXTT6=
EXTT7=
EXTT8=
EXTT9=
EXTT10=
EXTT11=
PLAYORDER=
